<?xml version="1.0" encoding="UTF-8"?>
<svg version="1.1" xmlns="http://www.w3.org/2000/svg" width="512" height="512">
<path d="M0 0 C168.96 0 337.92 0 512 0 C512 41.58 512 83.16 512 126 C506.39 127.65 500.78 129.3 495 131 C486.87949947 135.54361339 480.70473938 140.73883543 478 150 C476.34703674 157.32192879 475.86084298 164.71577189 475.35473633 172.18408203 C474.17168173 189.2597967 472.10680297 202.77814439 458.9375 214.8125 C455.69114069 217.62806281 452.35829689 220.3197233 449 223 C449.33322266 224.04454346 449.66644531 225.08908691 450.00976562 226.1652832 C451.24409433 230.0384213 452.47275596 233.91333746 453.69970703 237.78881836 C454.23168829 239.46639318 454.76520836 241.14348082 455.30029297 242.82006836 C456.06882638 245.22904275 456.83182176 247.63971082 457.59375 250.05078125 C457.83436157 250.80087967 458.07497314 251.55097809 458.32287598 252.32380676 C459.26652983 255.32537082 460 257.8333449 460 261 C458.35546875 262.2109375 458.35546875 262.2109375 456.1875 263.375 C452.61776511 265.51052282 450.47056776 266.95593867 449 271 C448.32405766 275.61180913 448.49507512 278.96995324 450.5625 283.1875 C456.09721145 289.57370552 461.45001777 292.93795134 469.328125 296.1171875 C474.37660118 299.67473943 475.58767775 307.6762842 477.38842773 313.40307617 C477.60677277 314.09537323 477.8251178 314.78767029 478.05007935 315.50094604 C478.76334447 317.76430064 479.4735082 320.02861482 480.18359375 322.29296875 C480.68521 323.8871261 481.18700874 325.48122604 481.6889801 327.07527161 C483.00620542 331.26009627 484.32073993 335.44576155 485.63476562 339.6315918 C486.69866664 343.01905522 487.76449299 346.4059113 488.83042812 349.7927351 C490.11548488 353.87593622 491.39965561 357.95941577 492.68359375 362.04296875 C492.92306669 362.80452963 493.16253963 363.56609051 493.40926933 364.35072899 C493.64283701 365.09376085 493.87640469 365.83679272 494.11705017 366.6023407 C494.34537568 367.32857793 494.57370119 368.05481516 494.80894566 368.80305958 C495.25176555 370.21518228 495.69298558 371.62780783 496.13246822 373.04097271 C497.14440479 376.29415154 498.17795989 379.53444249 499.25442505 382.76724243 C499.63074066 383.9156662 500.00705627 385.06408997 500.39477539 386.24731445 C500.72965469 387.24285843 501.064534 388.2384024 501.40956116 389.26411438 C502.05999501 392.27799573 501.94375035 394.07918615 501 397 C499.35697047 398.68997323 497.68528688 400.35216394 496 402 C490.96753391 408.36390949 490.96753391 408.36390949 489 416 C490.63542127 418.40289646 490.63542127 418.40289646 493.0625 420.5 C493.89265625 421.28117187 494.7228125 422.06234375 495.578125 422.8671875 C497.45382216 424.51901112 499.34199293 426.09125481 501.3125 427.625 C506.00753618 431.77410174 508.49880993 436.77685745 509.23828125 443.0078125 C509.48205009 449.96163934 508.01372603 456.44917428 503.421875 461.859375 C497.65807915 467.10390996 491.83894707 469.3350747 484.1027832 469.24072266 C478.30928108 468.79124645 472.66892094 467.46693917 467.00064087 466.23614502 C444.97987637 461.47959539 422.5658801 457.59180757 400 457 C398.81792969 456.96003906 397.63585937 456.92007812 396.41796875 456.87890625 C362.20927746 456.25957957 335.9172189 466.62286107 309.32421875 487.41796875 C289.41921399 502.95285217 272.10332298 514.14891753 246 512 C230.58491893 509.59874392 217.4541437 499.21507734 205.71264648 489.61206055 C170.68123734 461.00574591 135.33047093 454.09396993 90.62207031 458.58886719 C73.21667244 460.56451359 55.8406263 463.49230257 38.78491211 467.47583008 C29.43155424 469.58886689 21.75260481 470.26879689 13.1953125 465.48046875 C7.59891586 461.70638632 4.53796429 456.52144549 3 450 C2.11758316 443.09780804 3.26260903 436.94832404 7.25390625 431.19140625 C10.49964574 427.22046067 14.25642583 423.88017701 18.16796875 420.578125 C19.86190951 419.11895215 21.44164484 417.60177682 23 416 C20.97324094 407.83505638 17.12704571 400.7513638 10 396 C10.58717378 391.16476661 11.56553605 386.73694498 13.0378418 382.09692383 C13.34547203 381.11945442 13.34547203 381.11945442 13.65931702 380.12223816 C14.33418388 377.98218532 15.01670729 375.84465701 15.69921875 373.70703125 C16.17718217 372.19569588 16.65461469 370.68419252 17.13154602 369.17253113 C18.38872453 365.19210058 19.65220024 361.21369864 20.91729736 357.23577881 C22.6768199 351.69981533 24.42849609 346.16136597 26.17971802 340.62277222 C27.14384854 337.57383159 28.11204966 334.52622735 29.08322144 331.47952271 C31.09805434 325.14411956 33.08517539 318.81289809 34.86962891 312.40771484 C35.26768486 310.99325325 35.26768486 310.99325325 35.67378235 309.55021667 C36.1342527 307.88849726 36.57906331 306.2223061 37.00334167 304.55097961 C37.95810278 301.10555872 38.61568651 299.29455643 41.49731445 297.0859375 C42.32320068 296.72757812 43.14908691 296.36921875 44 296 C44.87398437 295.56300781 45.74796875 295.12601562 46.6484375 294.67578125 C47.99808594 294.00095703 47.99808594 294.00095703 49.375 293.3125 C55.23781769 290.15133208 59.98283456 286.03433088 63 280 C63.55973414 275.41201528 63.42464043 271.90023771 61.4375 267.6875 C58.5105368 264.46033545 55.88029067 262.94014534 52 261 C52.33 258.69 52.66 256.38 53 254 C51.81664062 253.64808594 50.63328125 253.29617187 49.4140625 252.93359375 C37.61160566 249.29870676 25.84551653 245.07771087 19 234 C16.43607883 228.34169121 16.61776024 222.66018823 16.625 216.5625 C16.62371094 215.41104492 16.62242188 214.25958984 16.62109375 213.07324219 C16.76460616 200.57787775 18.11790704 188.21893474 19.57666016 175.81860352 C21.66528275 157.82286783 22.10719795 141.36644655 14.4375 124.5 C14.15197266 123.86078613 13.86644531 123.22157227 13.57226562 122.56298828 C9.89843822 114.95695854 5.0660513 109.09247182 0 102 C0 68.34 0 34.68 0 0 Z " fill="#F0C17C" transform="translate(0,0)"/>
<path d="M0 0 C153.45 0 306.9 0 465 0 C470.4179556 11.51315564 475.03902285 21.81753007 478 34 C478.16371094 34.66354492 478.32742188 35.32708984 478.49609375 36.01074219 C482.93240107 54.60840243 482.77303869 71.88755818 472.875 88.75 C465.15533051 99.9393704 455.49043052 107.20573611 444 114 C441.97224475 115.20954688 439.94524724 116.42034421 437.91894531 117.63232422 C436.63651345 118.39615808 435.3508875 119.15466518 434.06152344 119.90673828 C420.07491827 128.14023246 415.07831665 141.73323126 410.48046875 156.74609375 C409.67536261 160.35146954 409.67536261 160.35146954 410 164 C412.24137839 165.8770013 414.27297996 167.31571824 416.75 168.8125 C417.42869141 169.24409424 418.10738281 169.67568848 418.80664062 170.12036133 C420.86266229 171.42753443 422.93070422 172.71397993 425 174 C445.42273917 186.92990802 445.42273917 186.92990802 448.58984375 199.3046875 C449.08546756 202.56164394 449.16975032 205.70565966 449.1875 209 C449.20167969 210.19625 449.21585937 211.3925 449.23046875 212.625 C449.00840258 215.87695208 448.39787037 218.08270531 447 221 C441.87379065 219.65966086 436.77519084 218.26298081 431.73046875 216.640625 C412.29171855 210.4517878 391.93814371 205.85964608 371.4609375 205.83203125 C370.13505112 205.82703865 370.13505112 205.82703865 368.78237915 205.82194519 C366.9218192 205.8169141 365.06125034 205.81453567 363.20068359 205.81469727 C360.40316287 205.8125219 357.60604441 205.79435556 354.80859375 205.77539062 C322.67168577 205.67089137 290.97436525 213.94263308 263.21118164 230.39575195 C258.58414039 233.06111488 258.58414039 233.06111488 255.62915039 232.75195312 C252.75579619 231.93015621 250.27908939 230.82403721 247.60546875 229.48828125 C246.57534668 228.98039063 245.54522461 228.4725 244.48388672 227.94921875 C243.3960791 227.40910156 242.30827148 226.86898437 241.1875 226.3125 C211.56747091 211.87491721 182.42175818 205.77718306 149.625 205.75 C148.78095612 205.74899292 147.93691223 205.74798584 147.06729126 205.74694824 C134.15430767 205.75735935 121.67267988 206.32861619 109 209 C108.27731934 209.14453613 107.55463867 209.28907227 106.81005859 209.43798828 C97.57631271 211.31129148 88.62097268 213.92985966 79.68115234 216.89379883 C74.50851335 218.59756142 69.33650227 219.91346038 64 221 C59.72786095 214.65282199 56.71577644 208.14678011 54 201 C53.45279297 199.6078125 53.45279297 199.6078125 52.89453125 198.1875 C47.98803615 180.70409388 54.44623728 162.01415055 59.15209961 145.171875 C60.98367743 138.32020238 61.21674344 132.00867604 61.25 124.9375 C61.270625 123.86822266 61.29125 122.79894531 61.3125 121.69726562 C61.43212706 96.94941688 46.75429257 78.7679109 32.125 60.25 C-0 19.41918298 -0 19.41918298 0 0 Z " fill="#CDAAD7" transform="translate(0,0)"/>
<path d="M0 0 C2.06793749 3.10190623 2.97147281 5.71681882 4.125 9.25 C10.484944 27.61598518 22.07874384 42.81853833 34 57.9375 C48.83607233 76.77828868 62.61698625 95.7872848 62.5625 120.6875 C62.5622583 121.75186279 62.5620166 122.81622559 62.56176758 123.9128418 C62.28596168 137.10991186 58.68150603 149.41074317 55.15112305 162.03564453 C53.42377759 168.50737008 52.41881921 174.54810494 52.4375 181.25 C52.44003784 182.59626465 52.44003784 182.59626465 52.44262695 183.96972656 C52.76549819 196.12869028 57.5848193 206.78112809 64 217 C68.83346571 216.03330686 73.41799771 214.90137859 78.0625 213.25 C101.43704495 205.30979198 124.60431573 201.75141759 149.1875 201.6875 C150.38297455 201.68185028 150.38297455 201.68185028 151.6026001 201.67608643 C166.28416598 201.64093141 180.99085014 202.5628148 195.375 205.6875 C196.1477124 205.85411133 196.9204248 206.02072266 197.71655273 206.19238281 C218.36631893 210.90165076 237.45583694 220.01468143 256 230 C256 312.17 256 394.34 256 479 C242.56848197 479 237.02723309 472.73733074 227.6328125 463.73046875 C206.16301518 443.6333306 178.26185954 434.59127698 150 429 C148.22689453 428.64228516 148.22689453 428.64228516 146.41796875 428.27734375 C138.33018106 426.78370307 130.20695342 426.24980225 122 426 C120.36756348 425.94900146 120.36756348 425.94900146 118.70214844 425.89697266 C89.36542367 425.1233 60.97627677 428.41064724 32.30126953 434.60449219 C30 435 30 435 26 435 C26.06960937 433.93523437 26.13921875 432.87046875 26.2109375 431.7734375 C26.8412263 417.85872421 23.61197917 407.67717912 14.61328125 396.671875 C12.90491419 394.78236322 12.90491419 394.78236322 10 393 C10.58717378 388.16476661 11.56553605 383.73694498 13.0378418 379.09692383 C13.34547203 378.11945442 13.34547203 378.11945442 13.65931702 377.12223816 C14.33418388 374.98218532 15.01670729 372.84465701 15.69921875 370.70703125 C16.17718217 369.19569588 16.65461469 367.68419252 17.13154602 366.17253113 C18.38872453 362.19210058 19.65220024 358.21369864 20.91729736 354.23577881 C22.6768199 348.69981533 24.42849609 343.16136597 26.17971802 337.62277222 C27.14384854 334.57383159 28.11204966 331.52622735 29.08322144 328.47952271 C31.09805434 322.14411956 33.08517539 315.81289809 34.86962891 309.40771484 C35.26768486 307.99325325 35.26768486 307.99325325 35.67378235 306.55021667 C36.1342527 304.88849726 36.57906331 303.2223061 37.00334167 301.55097961 C37.95810278 298.10555872 38.61568651 296.29455643 41.49731445 294.0859375 C42.32320068 293.72757812 43.14908691 293.36921875 44 293 C44.87398437 292.56300781 45.74796875 292.12601562 46.6484375 291.67578125 C47.99808594 291.00095703 47.99808594 291.00095703 49.375 290.3125 C55.23781769 287.15133208 59.98283456 283.03433088 63 277 C63.55973414 272.41201528 63.42464043 268.90023771 61.4375 264.6875 C58.5105368 261.46033545 55.88029067 259.94014534 52 258 C52.33 255.69 52.66 253.38 53 251 C51.81664062 250.64808594 50.63328125 250.29617187 49.4140625 249.93359375 C37.61160566 246.29870676 25.84551653 242.07771087 19 231 C16.43607883 225.34169121 16.61776024 219.66018823 16.625 213.5625 C16.62371094 212.41104492 16.62242188 211.25958984 16.62109375 210.07324219 C16.76460616 197.57787775 18.11790704 185.21893474 19.57666016 172.81860352 C21.66528275 154.82286783 22.10719795 138.36644655 14.4375 121.5 C14.15197266 120.86078613 13.86644531 120.22157227 13.57226562 119.56298828 C11.88686302 116.07365116 10.19095512 113.21414404 7.59086609 110.29830933 C-1.73301138 99.73012404 -1.31759615 89.53046254 -0.9765625 75.9765625 C-0.95787447 73.77700032 -0.94365727 71.57739606 -0.9336853 69.3777771 C-0.8957917 63.63266853 -0.79781961 57.89015243 -0.68664551 52.14605713 C-0.58371689 46.26699888 -0.5385427 40.38751512 -0.48828125 34.5078125 C-0.38154438 23.00407914 -0.2112325 11.50225645 0 0 Z " fill="#FEDAAB" transform="translate(0,3)"/>
<path d="M0 0 C13.85672427 -0.16417182 27.7132958 -0.28680976 41.57079601 -0.3626852 C48.00644503 -0.39911409 54.44143765 -0.44847661 60.87670898 -0.52807617 C67.0948507 -0.60450289 73.3123637 -0.64606797 79.5309391 -0.6641407 C81.89550985 -0.677009 84.26004875 -0.70213743 86.62434959 -0.7401104 C110.3394878 -1.10562207 110.3394878 -1.10562207 121 7 C122.51976692 8.11121971 122.51976692 8.11121971 124.07023621 9.24488831 C137.56451071 19.41929962 144.81554964 31.90326649 147.453125 48.51171875 C148.23772508 54.26929876 148.38984658 60.0497095 148.59350586 65.85107422 C149.3502402 85.12071139 151.04760169 107.32314798 165.91772461 121.24487305 C173.01690299 127.22869218 181.65065834 130.74975097 190.125 134.3125 C217.98989631 146.377059 237.14466588 160.96954379 248.78613281 189.95751953 C253.92215158 203.63156138 256.27720488 218.42485945 256 233 C252.59766264 231.67865975 249.31577905 230.22384781 246.04296875 228.609375 C214.63170997 213.25114379 184.58885441 205.77897922 149.625 205.75 C148.78095612 205.74899292 147.93691223 205.74798584 147.06729126 205.74694824 C134.15430767 205.75735935 121.67267988 206.32861619 109 209 C108.27731934 209.14453613 107.55463867 209.28907227 106.81005859 209.43798828 C97.57631271 211.31129148 88.62097268 213.92985966 79.68115234 216.89379883 C74.50851335 218.59756142 69.33650227 219.91346038 64 221 C59.72786095 214.65282199 56.71577644 208.14678011 54 201 C53.45279297 199.6078125 53.45279297 199.6078125 52.89453125 198.1875 C47.98803615 180.70409388 54.44623728 162.01415055 59.15209961 145.171875 C60.98367743 138.32020238 61.21674344 132.00867604 61.25 124.9375 C61.270625 123.86822266 61.29125 122.79894531 61.3125 121.69726562 C61.43212706 96.94941688 46.75429257 78.7679109 32.125 60.25 C-0 19.41918298 -0 19.41918298 0 0 Z " fill="#995898" transform="translate(0,0)"/>
<path d="M0 0 C2.35378821 1.53095971 4.16701829 3.40799355 6.15625 5.38671875 C9.5637961 8.5834888 11.57898117 9.74847292 16.28125 9.76171875 C18.13985219 9.62501405 19.99419384 9.42776263 21.84375 9.19921875 C29.11743304 8.32263791 36.2901022 8.0398152 43.61328125 8.03125 C44.71960403 8.02701523 45.82592682 8.02278046 46.96577454 8.01841736 C50.52930545 8.0085746 54.09270796 8.0084889 57.65625 8.01171875 C59.48044464 8.01262512 59.48044464 8.01262512 61.3414917 8.0135498 C91.08208464 8.05378953 121.94938797 8.31573873 150.84375 16.19921875 C149.9775 17.16859375 149.11125 18.13796875 148.21875 19.13671875 C140.97975707 27.22121615 140.97975707 27.22121615 137.84375 37.19921875 C139.47917127 39.60211521 139.47917127 39.60211521 141.90625 41.69921875 C142.73640625 42.48039062 143.5665625 43.2615625 144.421875 44.06640625 C146.29757216 45.71822987 148.18574293 47.29047356 150.15625 48.82421875 C154.85128618 52.97332049 157.34255993 57.9760762 158.08203125 64.20703125 C158.32580009 71.16085809 156.85747603 77.64839303 152.265625 83.05859375 C146.50182915 88.30312871 140.68269707 90.53429345 132.9465332 90.43994141 C127.15303108 89.9904652 121.51267094 88.66615792 115.84439087 87.43536377 C93.82362637 82.67881414 71.4096301 78.79102632 48.84375 78.19921875 C47.66167969 78.15925781 46.47960937 78.11929688 45.26171875 78.078125 C11.05302746 77.45879832 -15.2390311 87.82207982 -41.83203125 108.6171875 C-61.73703601 124.15207092 -79.05292702 135.34813628 -105.15625 133.19921875 C-120.57133107 130.79796267 -133.7021063 120.41429609 -145.44360352 110.8112793 C-180.47501266 82.20496466 -215.82577907 75.29318868 -260.53417969 79.78808594 C-277.93957756 81.76373234 -295.3156237 84.69152132 -312.37133789 88.67504883 C-321.72469576 90.78808564 -329.40364519 91.46801564 -337.9609375 86.6796875 C-343.55733414 82.90560507 -346.61828571 77.72066424 -348.15625 71.19921875 C-349.03866684 64.29702679 -347.89364097 58.14754279 -343.90234375 52.390625 C-340.65660426 48.41967942 -336.89982417 45.07939576 -332.98828125 41.77734375 C-331.13716136 40.23662011 -331.13716136 40.23662011 -329.54296875 38.49609375 C-328.15625 37.19921875 -328.15625 37.19921875 -326.15625 37.19921875 C-324.15698307 41.35579743 -323.91518367 44.73699276 -323.96875 49.32421875 C-323.97519531 50.54367187 -323.98164063 51.763125 -323.98828125 53.01953125 C-324.15625 56.19921875 -324.15625 56.19921875 -325.15625 59.19921875 C-324.53919189 59.06346436 -323.92213379 58.92770996 -323.28637695 58.7878418 C-309.77799203 55.83799302 -296.31344912 53.22061995 -282.58984375 51.5078125 C-280.30628952 51.21824463 -278.0288188 50.89859116 -275.75 50.57421875 C-260.30532172 48.52089993 -244.70052152 48.9231177 -229.15625 49.19921875 C-227.85349121 49.22024658 -227.85349121 49.22024658 -226.52441406 49.24169922 C-209.64621468 49.60960604 -192.15671014 52.81805841 -176.15625 58.19921875 C-175.4564502 58.42947754 -174.75665039 58.65973633 -174.03564453 58.89697266 C-153.34142999 65.78323493 -134.68010355 75.27763819 -119.34375 91.01171875 C-111.36620944 99.16193335 -107.1053035 101.02666357 -95.15625 103.19921875 C-95.15625 83.39921875 -95.15625 63.59921875 -95.15625 43.19921875 C-77.80825373 33.94695407 -77.80825373 33.94695407 -68.65625 30.51171875 C-67.67720703 30.136521 -66.69816406 29.76132324 -65.68945312 29.37475586 C-55.63714297 25.55557195 -45.50845186 22.11404326 -35.15625 19.19921875 C-35.08148438 18.64234375 -35.00671875 18.08546875 -34.9296875 17.51171875 C-33.57333327 9.63954519 -30.25505333 4.78155486 -24.15625 -0.30078125 C-17.30135656 -3.73586148 -6.93778626 -3.01323344 0 0 Z " fill="#AD6A69" transform="translate(351.15625,378.80078125)"/>
<path d="M0 0 C15.78575179 -0.18706257 31.57120335 -0.32804237 47.35778904 -0.41449738 C54.68820353 -0.45571119 62.01792854 -0.51187617 69.34790039 -0.60351562 C75.7383917 -0.68337144 82.12838361 -0.73489298 88.51936001 -0.75270796 C91.90219809 -0.76311898 95.28360783 -0.78749848 98.66598701 -0.84584045 C102.44688709 -0.90392618 106.22482902 -0.91191218 110.00610352 -0.90820312 C111.12172668 -0.93696533 112.23734985 -0.96572754 113.38677979 -0.99536133 C120.82382677 -0.91642721 120.82382677 -0.91642721 124.20147514 1.71530151 C125.99333649 3.73019366 127.513743 5.75312737 129 8 C129.88523539 9.20291595 130.77169032 10.40493688 131.66015625 11.60546875 C132.4698791 12.79343356 133.27059006 13.98758745 134.0625 15.1875 C134.48732666 15.83041992 134.91215332 16.47333984 135.34985352 17.13574219 C143.12833387 29.17277401 149.92004479 43.31602106 148 58 C145.45380069 67.3512201 138.83229401 74.46245989 130.74609375 79.5078125 C121.72498369 84.40975282 112.14690194 87.98952441 102.5 91.4375 C81.8891364 98.85431968 65.44618431 108.68456397 54 128 C53.67 128 53.34 128 53 128 C52.91363281 127.09121094 52.82726562 126.18242188 52.73828125 125.24609375 C49.99349094 100.6940703 39.96064567 85.20217448 21 70 C20.33484375 69.48695312 19.6696875 68.97390625 18.984375 68.4453125 C7.8575978 59.57396311 1.83568885 45.879759 0 32 C-0.234122 26.45475523 -0.19030569 20.92351911 -0.125 15.375 C-0.11494608 13.87891227 -0.10582451 12.38281797 -0.09765625 10.88671875 C-0.07584308 7.25767374 -0.04144741 3.62888015 0 0 Z " fill="#995898" transform="translate(170,0)"/>
<path d="M0 0 C20.46 0 40.92 0 62 0 C62.3125 15.25 62.3125 15.25 62.38793945 19.98144531 C62.6057067 28.32971975 63.48379207 35.99164621 66 44 C66.35320312 45.12535156 66.70640625 46.25070313 67.0703125 47.41015625 C72.0554609 59.94688131 80.57747967 67.82662722 91 76 C105.97552728 88.15531849 113.43487949 104.03212854 115.625 123.0625 C115.74875 124.361875 115.8725 125.66125 116 127 C116.38929688 126.32195312 116.77859375 125.64390625 117.1796875 124.9453125 C129.25949935 104.84940431 147.27156314 96.82629683 168.296875 89.03125 C191.73897683 80.97181319 191.73897683 80.97181319 207.2734375 62.796875 C211.28683658 52.87126437 208.62958639 42.67202283 205 33 C200.61074973 22.7236678 194.28094757 13.94109802 187.44140625 5.16796875 C185 2 185 2 184 0 C210.18498198 -2.23995847 210.18498198 -2.23995847 215.8046875 2.3671875 C218.10210434 4.98327016 219.6751671 7.90227791 221.10839844 11.06201172 C222.02828424 13.06147871 223.07753555 14.92123533 224.1953125 16.81640625 C233.16252055 32.26257057 239.13520816 50.22866155 235.3125 68.25 C227.26290206 91.24885126 207.80299386 100.97330081 187 111 C183.47472235 112.62135626 179.9285827 114.19182492 176.375 115.75 C156.88356336 124.3113196 145.13935775 134.31999258 136.6875 154.0625 C134.50520272 159.87226032 133.25496039 165.9343581 132 172 C131.44441406 171.29488281 130.88882813 170.58976563 130.31640625 169.86328125 C115.88339303 152.02281128 99.0345963 142.08291862 78.0625 133.375 C70.73297219 130.31561611 64.06288775 127.24581889 58 122 C57.278125 121.39800781 56.55625 120.79601562 55.8125 120.17578125 C42.9546984 108.52339855 40.71027424 88.16538873 39.87890625 71.58496094 C39.81853805 69.908431 39.76245085 68.23174194 39.71044922 66.55493164 C39.10321881 47.95459677 36.85725499 30.16121337 23.3671875 16.09375 C16.37736776 9.91133518 8.50194246 4.83420935 0 1 C0 0.67 0 0.34 0 0 Z " fill="#F8B032" transform="translate(108,0)"/>
<path d="M0 0 C3.55374373 2.75801416 6.4094566 5.87398642 8.375 9.9375 C8.45235641 11.40293708 8.51417232 12.86925611 8.5625 14.3359375 C8.95074369 16.79739266 8.95074369 16.79739266 10.375 18.9375 C14.46624569 21.1976255 18.78262209 22.44802397 23.262146 23.69021606 C27.03798602 24.74017043 30.77478329 25.9145265 34.515625 27.08203125 C35.64271378 27.42949654 35.64271378 27.42949654 36.79257202 27.78398132 C43.86693584 30.00377205 50.54031068 32.83564629 57.25 36 C58.24016113 36.46519043 59.23032227 36.93038086 60.25048828 37.40966797 C63.78814063 39.10383487 67.106802 40.75870133 70.375 42.9375 C70.73576355 45.45584106 70.73576355 45.45584106 70.71557617 48.67236328 C70.71534958 49.87345734 70.71512299 51.07455139 70.71488953 52.31204224 C70.69940567 53.61414642 70.68392181 54.91625061 70.66796875 56.2578125 C70.66237416 57.60016405 70.65810341 58.94252173 70.65510559 60.28488159 C70.64364585 63.81960941 70.61416959 67.35396798 70.58099365 70.8885498 C70.55031671 74.49465947 70.53660538 78.10082874 70.52148438 81.70703125 C70.48930052 88.78400532 70.43809094 95.86072857 70.375 102.9375 C57.26367383 103.05597085 51.27014844 96.54819512 42.0078125 87.66796875 C20.53801518 67.5708306 -7.36314046 58.52877698 -35.625 52.9375 C-36.80707031 52.69902344 -37.98914063 52.46054687 -39.20703125 52.21484375 C-47.29481894 50.72120307 -55.41804658 50.18730225 -63.625 49.9375 C-64.71329102 49.90350098 -65.80158203 49.86950195 -66.92285156 49.83447266 C-96.25957633 49.0608 -124.64872323 52.34814724 -153.32373047 58.54199219 C-155.625 58.9375 -155.625 58.9375 -159.625 58.9375 C-159.55539063 57.87273437 -159.48578125 56.80796875 -159.4140625 55.7109375 C-158.7837737 41.79622421 -162.01302083 31.61467912 -171.01171875 20.609375 C-172.72008581 18.71986322 -172.72008581 18.71986322 -175.625 16.9375 C-175.625 16.2775 -175.625 15.6175 -175.625 14.9375 C-166.95294489 13.60404292 -158.26937608 12.36686827 -149.57348633 11.20037842 C-147.76255681 10.95605836 -145.95252525 10.70510762 -144.14257812 10.45361328 C-125.70028531 7.97472366 -107.40093418 7.67185594 -88.8125 7.6875 C-87.6604306 7.68818481 -86.50836121 7.68886963 -85.32138062 7.6895752 C-81.91598133 7.69624466 -78.51080665 7.71316665 -75.10546875 7.734375 C-73.99733322 7.73858459 -72.88919769 7.74279419 -71.7474823 7.74713135 C-65.95844626 7.79588689 -60.22795966 8.007277 -54.45556641 8.45898438 C-52.70280144 8.58022675 -52.70280144 8.58022675 -50.91462708 8.70391846 C-48.69915442 8.86505522 -46.48580198 9.06064935 -44.27714539 9.29754639 C-39.78512485 9.60952763 -36.84721018 9.73595745 -32.99838257 7.22155762 C-30.75325398 5.21721619 -28.70181501 3.11263396 -26.625 0.9375 C-19.32509819 -3.73443716 -7.59167698 -4.38148214 0 0 Z " fill="#DFAB69" transform="translate(185.625,379.0625)"/>
<path d="M0 0 C2.35378821 1.53095971 4.16701829 3.40799355 6.15625 5.38671875 C9.5637961 8.5834888 11.57898117 9.74847292 16.28125 9.76171875 C18.13985219 9.62501405 19.99419384 9.42776263 21.84375 9.19921875 C29.11743304 8.32263791 36.2901022 8.0398152 43.61328125 8.03125 C45.27276543 8.02489784 45.27276543 8.02489784 46.96577454 8.01841736 C50.52930545 8.0085746 54.09270796 8.0084889 57.65625 8.01171875 C59.48044464 8.01262512 59.48044464 8.01262512 61.3414917 8.0135498 C91.08208464 8.05378953 121.94938797 8.31573873 150.84375 16.19921875 C149.9775 17.16859375 149.11125 18.13796875 148.21875 19.13671875 C137.2385257 32.03330295 134.14874501 42.55771026 134.84375 59.19921875 C128.31972924 58.66444895 122.04661581 57.72062713 115.65625 56.32421875 C108.08502651 54.74157855 100.5147786 53.50246291 92.84375 52.51171875 C91.9256958 52.3926416 91.0076416 52.27356445 90.06176758 52.15087891 C38.50182105 45.73193649 -17.94189797 50.46053737 -60.80078125 82.4765625 C-64.87966059 85.67154716 -68.43988205 89.33336743 -72.0222168 93.06469727 C-76.61008324 97.80359817 -81.46901364 102.03366171 -88.15625 103.19921875 C-90.46625 103.19921875 -92.77625 103.19921875 -95.15625 103.19921875 C-95.15625 83.39921875 -95.15625 63.59921875 -95.15625 43.19921875 C-77.80825373 33.94695407 -77.80825373 33.94695407 -68.65625 30.51171875 C-67.18768555 29.94892212 -67.18768555 29.94892212 -65.68945312 29.37475586 C-55.63714297 25.55557195 -45.50845186 22.11404326 -35.15625 19.19921875 C-35.08148438 18.64234375 -35.00671875 18.08546875 -34.9296875 17.51171875 C-33.57333327 9.63954519 -30.25505333 4.78155486 -24.15625 -0.30078125 C-17.30135656 -3.73586148 -6.93778626 -3.01323344 0 0 Z " fill="#C68642" transform="translate(351.15625,378.80078125)"/>
<path d="M0 0 C15.51 0 31.02 0 47 0 C47 41.58 47 83.16 47 126 C41.39 127.65 35.78 129.3 30 131 C21.87949947 135.54361339 15.70473938 140.73883543 13 150 C11.34703674 157.32192879 10.86084298 164.71577189 10.35473633 172.18408203 C9.0495912 191.02200041 6.0825957 204.07037115 -8.4375 217.0546875 C-11.15903584 219.12073148 -13.90403511 220.56901623 -17 222 C-16.97643433 221.16190796 -16.97643433 221.16190796 -16.95239258 220.30688477 C-16.88925076 217.7255301 -16.85076296 215.1443387 -16.8125 212.5625 C-16.78736328 211.68400391 -16.76222656 210.80550781 -16.73632812 209.90039062 C-16.64058335 201.25144632 -18.49874996 193.83939194 -24 187 C-29.3819004 181.75228553 -35.28209256 177.70023348 -41.6875 173.8125 C-53.06932812 166.84168387 -53.06932812 166.84168387 -56 164 C-56.56199738 152.76005239 -50.04774531 139.24127419 -44 130 C-43.34 128.989375 -42.68 127.97875 -42 126.9375 C-38.18156411 122.62254922 -32.82528027 120.01014564 -27.90917969 117.12255859 C-17.83027879 111.19637108 -8.26581988 105.39249911 0 97 C0.56976563 96.44054687 1.13953125 95.88109375 1.7265625 95.3046875 C6.44595839 90.29486725 9.25720608 84.25421739 12 78 C12.34417969 77.22011719 12.68835938 76.44023438 13.04296875 75.63671875 C17.82980996 62.62460109 15.2471011 47.10244895 12 34 C11.82839355 33.30519531 11.65678711 32.61039063 11.47998047 31.89453125 C9.05585129 22.37998671 5.73313926 13.66218468 1.35546875 4.87890625 C0 2 0 2 0 0 Z " fill="#F8B032" transform="translate(465,0)"/>
<path d="M0 0 C2.06793749 3.10190623 2.97147281 5.71681882 4.125 9.25 C10.484944 27.61598518 22.07874384 42.81853833 34 57.9375 C48.83607233 76.77828868 62.61698625 95.7872848 62.5625 120.6875 C62.5622583 121.75186279 62.5620166 122.81622559 62.56176758 123.9128418 C62.28596168 137.10991186 58.68150603 149.41074317 55.15112305 162.03564453 C53.42377759 168.50737008 52.41881921 174.54810494 52.4375 181.25 C52.44003784 182.59626465 52.44003784 182.59626465 52.44262695 183.96972656 C52.73069118 194.81789771 56.4030411 203.81249144 61.9375 213.0625 C63.58676693 215.89817508 63.99720533 216.85467717 64.0625 220.25 C62.80600483 224.68468884 61.51425443 229.10077338 60.11328125 233.4921875 C59.35397623 235.88466436 58.62333246 238.28638085 57.91796875 240.6953125 C57.57378906 241.86835938 57.22960938 243.04140625 56.875 244.25 C56.56304687 245.32765625 56.25109375 246.4053125 55.9296875 247.515625 C55 250 55 250 53 251 C40.08190728 247.690406 26.38692678 242.95384435 19 231 C16.43607883 225.34169121 16.61776024 219.66018823 16.625 213.5625 C16.62371094 212.41104492 16.62242188 211.25958984 16.62109375 210.07324219 C16.76460616 197.57787775 18.11790704 185.21893474 19.57666016 172.81860352 C21.66528275 154.82286783 22.10719795 138.36644655 14.4375 121.5 C14.15197266 120.86078613 13.86644531 120.22157227 13.57226562 119.56298828 C11.88686302 116.07365116 10.19095512 113.21414404 7.59086609 110.29830933 C-1.73301138 99.73012404 -1.31759615 89.53046254 -0.9765625 75.9765625 C-0.95787447 73.77700032 -0.94365727 71.57739606 -0.9336853 69.3777771 C-0.8957917 63.63266853 -0.79781961 57.89015243 -0.68664551 52.14605713 C-0.58371689 46.26699888 -0.5385427 40.38751512 -0.48828125 34.5078125 C-0.38154438 23.00407914 -0.2112325 11.50225645 0 0 Z " fill="#F8B032" transform="translate(0,3)"/>
<path d="M0 0 C25.08 0 50.16 0 76 0 C81.4179556 11.51315564 86.03902285 21.81753007 89 34 C89.24556641 34.99531738 89.24556641 34.99531738 89.49609375 36.01074219 C93.93240107 54.60840243 93.77303869 71.88755818 83.875 88.75 C76.15533051 99.9393704 66.49043052 107.20573611 55 114 C52.97224475 115.20954688 50.94524724 116.42034421 48.91894531 117.63232422 C47.63651345 118.39615808 46.3508875 119.15466518 45.06152344 119.90673828 C29.20613442 129.24032935 24.48112314 146.07687574 20 163 C13.07345783 157.83904701 9.71936677 152.15810031 7 144 C5.52156414 126.3432517 12.06103095 112.43811263 18.98950195 96.53759766 C26.34000006 79.57888387 32.22478603 60.22964258 26.5625 41.75 C25.77406207 39.80537216 24.91097221 37.89032839 24 36 C23.68853027 35.34547852 23.37706055 34.69095703 23.05615234 34.01660156 C18.63974583 24.86169438 13.81035258 16.60994863 7 9 C6.32195312 8.2265625 5.64390625 7.453125 4.9453125 6.65625 C3.72253427 5.26159532 2.49186119 3.87378351 1.25 2.49609375 C0 1 0 1 0 0 Z " fill="#894687" transform="translate(389,0)"/>
<path d="M0 0 C26.18498198 -2.23995847 26.18498198 -2.23995847 31.8046875 2.3671875 C34.10210434 4.98327016 35.6751671 7.90227791 37.10839844 11.06201172 C38.02828424 13.06147871 39.07753555 14.92123533 40.1953125 16.81640625 C49.16252055 32.26257057 55.13520816 50.22866155 51.3125 68.25 C43.26290206 91.24885126 23.80299386 100.97330081 3 111 C-0.52527765 112.62135626 -4.0714173 114.19182492 -7.625 115.75 C-27.11643664 124.3113196 -38.86064225 134.31999258 -47.3125 154.0625 C-49.49479728 159.87226032 -50.74503961 165.9343581 -52 172 C-52.55300781 171.29617187 -53.10601562 170.59234375 -53.67578125 169.8671875 C-60.34902704 161.63498177 -67.28814246 154.10905566 -76 148 C-75.48576637 142.40861458 -74.00851985 138.21773327 -71.4375 133.25 C-70.90286133 132.20392578 -70.90286133 132.20392578 -70.35742188 131.13671875 C-58.06284725 107.67115102 -39.53191667 97.8656753 -15.703125 89.03125 C7.73897683 80.97181319 7.73897683 80.97181319 23.2734375 62.796875 C27.28683658 52.87126437 24.62958639 42.67202283 21 33 C16.61074973 22.7236678 10.28094757 13.94109802 3.44140625 5.16796875 C1 2 1 2 0 0 Z " fill="#FEBF5A" transform="translate(292,0)"/>
<path d="M0 0 C9.57 0 19.14 0 29 0 C28.67 3.96 28.34 7.92 28 12 C27.84267206 15.71912938 27.72728516 19.40641412 27.6875 23.125 C27.64399414 24.49205078 27.64399414 24.49205078 27.59960938 25.88671875 C27.50203717 36.43952809 31.1035662 43.91919314 38.30859375 51.4921875 C42.26732163 55.18087154 46.52418521 58.40096558 50.8515625 61.640625 C63.01953869 70.75905877 70.35121256 81.0125075 74 96 C74.16983398 96.64340332 74.33966797 97.28680664 74.51464844 97.94970703 C74.9453125 100.0234375 74.9453125 100.0234375 75 104 C73.15499601 106.29361797 71.78055904 107.6497104 69.5 109.375 C64.57178375 113.4527305 60.87211821 117.46762133 57.40234375 122.90625 C56.08859087 124.86773062 54.72707594 126.40104542 53 128 C52.91363281 127.09121094 52.82726562 126.18242188 52.73828125 125.24609375 C49.99349094 100.6940703 39.96064567 85.20217448 21 70 C20.33484375 69.48695312 19.6696875 68.97390625 18.984375 68.4453125 C7.92139682 59.6248299 1.7075592 45.85057084 0 32 C-0.22827412 26.45447024 -0.19030655 20.92359239 -0.125 15.375 C-0.11494608 13.87891227 -0.10582451 12.38281797 -0.09765625 10.88671875 C-0.07756098 7.25751348 -0.03838209 3.6292397 0 0 Z " fill="#894686" transform="translate(170,0)"/>
<path d="M0 0 C0.93580902 -0.00261841 1.87161804 -0.00523682 2.83578491 -0.00793457 C16.79974328 -0.01212341 30.15016001 0.57773479 43.6875 4.3125 C44.38617188 4.49925293 45.08484375 4.68600586 45.8046875 4.87841797 C56.0402579 7.6652579 56.0402579 7.6652579 57.6875 9.3125 C57.875 11.75 57.875 11.75 57.6875 14.3125 C57.0275 14.9725 56.3675 15.6325 55.6875 16.3125 C51.45037577 16.04204526 47.62742624 15.03623498 43.5546875 13.8671875 C15.89594984 6.2931175 -16.53312234 6.70661496 -44.3125 13.3125 C-45.23708008 13.51617187 -46.16166016 13.71984375 -47.11425781 13.9296875 C-59.86500485 16.74868582 -71.64995224 20.73822887 -83.50952148 26.23681641 C-84.45770752 26.66397949 -85.40589355 27.09114258 -86.3828125 27.53125 C-87.21570801 27.92248047 -88.04860352 28.31371094 -88.90673828 28.71679688 C-92.0015218 29.48311226 -93.52166252 28.72750248 -96.3125 27.3125 C-96.3125 25.6625 -96.3125 24.0125 -96.3125 22.3125 C-66.41990466 6.03435402 -33.74525604 0.09015386 0 0 Z " fill="#654935" transform="translate(376.3125,280.6875)"/>
<path d="M0 0 C0.92119629 -0.00139984 1.84239258 -0.00279968 2.79150391 -0.00424194 C19.34182869 0.01634215 34.85264985 1.62134292 51 5.4375 C51.86367187 5.63504883 52.72734375 5.83259766 53.6171875 6.03613281 C68.45130946 9.51062983 83.94634326 14.50638786 97 22.4375 C97.042721 24.10361905 97.04063832 25.77132885 97 27.4375 C96.67 27.7675 96.34 28.0975 96 28.4375 C88.8422879 28.11827597 83.52672966 26.19072642 77.0625 23.25 C64.71172753 17.92670162 52.15333257 15.04040222 39 12.4375 C37.40622988 12.09384332 35.81247794 11.75010226 34.21875 11.40625 C8.69868436 6.28313755 -23.80907918 7.08833976 -48.36328125 15.765625 C-51.35064694 16.52685004 -53.08274578 16.38146522 -56 15.4375 C-56.66 14.7775 -57.32 14.1175 -58 13.4375 C-57.63318342 10.50296739 -57.13562754 9.57312754 -55 7.4375 C-52.9597168 6.78320312 -52.9597168 6.78320312 -50.44921875 6.21875 C-49.52173828 6.00863281 -48.59425781 5.79851562 -47.63867188 5.58203125 C-46.66478516 5.36933594 -45.69089844 5.15664063 -44.6875 4.9375 C-43.75615234 4.72480469 -42.82480469 4.51210938 -41.86523438 4.29296875 C-38.91686927 3.63508578 -35.96315425 3.02510855 -33 2.4375 C-32.03400879 2.24406006 -31.06801758 2.05062012 -30.07275391 1.85131836 C-20.08175284 0.07537118 -10.1169499 -0.00147286 0 0 Z " fill="#654A37" transform="translate(135,280.5625)"/>
<path d="M0 0 C1.09482193 0.00323273 1.09482193 0.00323273 2.21176147 0.00653076 C19.68487008 0.08925219 35.31297052 2.63919901 52 7.8125 C52.70125 8.0290625 53.4025 8.245625 54.125 8.46875 C56.28342064 9.44003929 57.52217191 10.46989156 59 12.3125 C58.74853421 14.44995922 58.54074221 15.77175779 57 17.3125 C52.28015124 17.83692764 48.93969272 17.05025463 44.48046875 15.43359375 C9.08174492 3.34759997 -31.70018933 8.16900543 -65 24.3125 C-67.72271226 25.9010335 -70.3464132 27.52795679 -72.921875 29.34375 C-75.65569307 30.61816143 -77.17058317 30.19789574 -80 29.3125 C-81 28.3125 -81 28.3125 -81.0625 25.75 C-81.041875 24.945625 -81.02125 24.14125 -81 23.3125 C-63.91618038 12.83368079 -46.63715059 6.25637088 -27 2.3125 C-26.17242187 2.12631104 -25.34484375 1.94012207 -24.4921875 1.74829102 C-16.36003998 0.04220895 -8.27234927 -0.04385528 0 0 Z " fill="#654935" transform="translate(361,233.6875)"/>
<path d="M0 0 C1.60671103 0.42318882 3.22721352 0.79346908 4.84960938 1.15185547 C19.71649794 4.64055785 33.99340808 11.4671331 46.89648438 19.49951172 C47.02148438 21.87451172 47.02148438 21.87451172 46.89648438 24.49951172 C46.23648438 25.15951172 45.57648438 25.81951172 44.89648438 26.49951172 C40.32618616 26.19537317 36.60723485 23.9258735 32.64648438 21.81201172 C24.3343895 17.51475345 15.80331873 14.32884988 6.89648438 11.49951172 C6.10677246 11.24403564 5.31706055 10.98855957 4.50341797 10.7253418 C-23.02256109 2.0910513 -55.42294899 2.89874516 -82.51757812 12.76513672 C-85.52119613 13.61812793 -87.99590851 13.76065517 -91.10351562 13.49951172 C-91.76351562 12.83951172 -92.42351562 12.17951172 -93.10351562 11.49951172 C-93.04101562 9.56201172 -93.04101562 9.56201172 -92.10351562 7.49951172 C-68.82671501 -8.50328871 -26.30194763 -6.9391083 0 0 Z " fill="#654936" transform="translate(185.103515625,237.50048828125)"/>
<path d="M0 0 C0.77923828 0.00451172 1.55847656 0.00902344 2.36132812 0.01367188 C4.26175268 0.02533092 6.16213706 0.04326123 8.0625 0.0625 C8.75 2.375 8.75 2.375 9.0625 5.0625 C7.47649882 7.25517551 6.45804367 7.97114162 3.80786133 8.58325195 C2.48951294 8.69092896 2.48951294 8.69092896 1.14453125 8.80078125 C-0.34759888 8.94229614 -0.34759888 8.94229614 -1.86987305 9.08666992 C-2.94406494 9.18181885 -4.01825684 9.27696777 -5.125 9.375 C-26.63527823 11.64619437 -48.93494 16.95111064 -68.34375 26.7890625 C-71.39629075 28.28774968 -73.57969555 28.30234318 -76.9375 28.0625 C-77.2675 26.0825 -77.5975 24.1025 -77.9375 22.0625 C-56.88947731 8.50757339 -24.84863434 -0.2768057 0 0 Z " fill="#654935" transform="translate(357.9375,326.9375)"/>
<path d="M0 0 C28.57605893 -0.86740145 59.92672204 7.1577536 85 21 C86.0625 23.625 86.0625 23.625 86 26 C85.67 26.66 85.34 27.32 85 28 C79.26939243 28.5284185 75.38866758 26.69702663 70.3125 24.375 C50.074424 15.54398203 29.22270007 10.50321359 7.18896484 8.77050781 C4.4388759 8.51580621 2.35162509 8.21696016 -0.01953125 6.75390625 C-1 5 -1 5 -0.6875 2.3125 C-0.460625 1.549375 -0.23375 0.78625 0 0 Z " fill="#654936" transform="translate(146,327)"/>
<path d="M0 0 C1.9375 0.8125 1.9375 0.8125 3.9375 2.8125 C4.1328125 5.6328125 4.1328125 5.6328125 4.0625 8.9375 C4.04445313 10.03320312 4.02640625 11.12890625 4.0078125 12.2578125 C3.98460937 13.10085937 3.96140625 13.94390625 3.9375 14.8125 C4.78054688 14.78929687 5.62359375 14.76609375 6.4921875 14.7421875 C8.13574219 14.71511719 8.13574219 14.71511719 9.8125 14.6875 C11.44832031 14.65269531 11.44832031 14.65269531 13.1171875 14.6171875 C15.9375 14.8125 15.9375 14.8125 17.9375 16.8125 C17.38194444 21.36805556 17.38194444 21.36805556 15.9375 22.8125 C13.91785801 22.88494053 11.89582876 22.89627188 9.875 22.875 C8.77027344 22.86597656 7.66554688 22.85695312 6.52734375 22.84765625 C5.67269531 22.83605469 4.81804687 22.82445312 3.9375 22.8125 C3.98970703 24.05966797 3.98970703 24.05966797 4.04296875 25.33203125 C4.07003906 26.41871094 4.09710938 27.50539062 4.125 28.625 C4.17720703 30.24341797 4.17720703 30.24341797 4.23046875 31.89453125 C3.9375 34.8125 3.9375 34.8125 2.5546875 36.7109375 C0.9375 37.8125 0.9375 37.8125 -1.125 37.625 C-3.0625 36.8125 -3.0625 36.8125 -5.0625 34.8125 C-5.2578125 31.9921875 -5.2578125 31.9921875 -5.1875 28.6875 C-5.16945313 27.59179688 -5.15140625 26.49609375 -5.1328125 25.3671875 C-5.10960937 24.52414063 -5.08640625 23.68109375 -5.0625 22.8125 C-5.90554688 22.83570313 -6.74859375 22.85890625 -7.6171875 22.8828125 C-9.26074219 22.90988281 -9.26074219 22.90988281 -10.9375 22.9375 C-12.57332031 22.97230469 -12.57332031 22.97230469 -14.2421875 23.0078125 C-17.0625 22.8125 -17.0625 22.8125 -19.0625 20.8125 C-18.50694444 16.25694444 -18.50694444 16.25694444 -17.0625 14.8125 C-15.04285801 14.74005947 -13.02082876 14.72872812 -11 14.75 C-9.34291016 14.76353516 -9.34291016 14.76353516 -7.65234375 14.77734375 C-6.79769531 14.78894531 -5.94304687 14.80054688 -5.0625 14.8125 C-5.09730469 13.98105469 -5.13210938 13.14960938 -5.16796875 12.29296875 C-5.19503906 11.20628906 -5.22210938 10.11960938 -5.25 9 C-5.30220703 7.38158203 -5.30220703 7.38158203 -5.35546875 5.73046875 C-5.0625 2.8125 -5.0625 2.8125 -3.6796875 0.9140625 C-2.0625 -0.1875 -2.0625 -0.1875 0 0 Z " fill="#25A6BD" transform="translate(329.0625,151.1875)"/>
<path d="M0 0 C2.5625 0.1875 2.5625 0.1875 4.5625 2.1875 C4.7578125 5.0078125 4.7578125 5.0078125 4.6875 8.3125 C4.66945313 9.40820312 4.65140625 10.50390625 4.6328125 11.6328125 C4.60960938 12.47585937 4.58640625 13.31890625 4.5625 14.1875 C5.40554687 14.16429687 6.24859375 14.14109375 7.1171875 14.1171875 C8.76074219 14.09011719 8.76074219 14.09011719 10.4375 14.0625 C12.07332031 14.02769531 12.07332031 14.02769531 13.7421875 13.9921875 C16.5625 14.1875 16.5625 14.1875 18.5625 16.1875 C18.75 18.75 18.75 18.75 18.5625 21.1875 C17.5625 22.1875 17.5625 22.1875 14.62109375 22.28515625 C13.42613281 22.27355469 12.23117188 22.26195312 11 22.25 C9.20369141 22.23646484 9.20369141 22.23646484 7.37109375 22.22265625 C6.44425781 22.21105469 5.51742187 22.19945312 4.5625 22.1875 C4.58570312 23.01894531 4.60890625 23.85039062 4.6328125 24.70703125 C4.65988281 26.33705078 4.65988281 26.33705078 4.6875 28 C4.71070312 29.07894531 4.73390625 30.15789062 4.7578125 31.26953125 C4.5625 34.1875 4.5625 34.1875 2.5625 37.1875 C-2.3125 36.3125 -2.3125 36.3125 -3.4375 35.1875 C-3.51008946 33.00110547 -3.52123783 30.81249611 -3.5 28.625 C-3.48646484 26.82869141 -3.48646484 26.82869141 -3.47265625 24.99609375 C-3.46105469 24.06925781 -3.44945313 23.14242187 -3.4375 22.1875 C-4.35273437 22.21070313 -5.26796875 22.23390625 -6.2109375 22.2578125 C-7.99371094 22.28488281 -7.99371094 22.28488281 -9.8125 22.3125 C-10.99585937 22.33570313 -12.17921875 22.35890625 -13.3984375 22.3828125 C-16.4375 22.1875 -16.4375 22.1875 -18.4375 20.1875 C-17.88194444 15.63194444 -17.88194444 15.63194444 -16.4375 14.1875 C-14.25110547 14.11491054 -12.06249611 14.10376217 -9.875 14.125 C-8.07869141 14.13853516 -8.07869141 14.13853516 -6.24609375 14.15234375 C-5.31925781 14.16394531 -4.39242187 14.17554688 -3.4375 14.1875 C-3.44910156 13.26066406 -3.46070312 12.33382812 -3.47265625 11.37890625 C-3.48167969 10.18136719 -3.49070312 8.98382813 -3.5 7.75 C-3.51160156 6.55503906 -3.52320312 5.36007813 -3.53515625 4.12890625 C-3.40677489 0.26205961 -3.40677489 0.26205961 0 0 Z " fill="#FCBD5B" transform="translate(111.4375,146.8125)"/>
<path d="M0 0 C0.66 0.66 1.32 1.32 2 2 C1.625 4.625 1.625 4.625 1 7 C-3.51865554 8.19197148 -8.02251751 9.22193692 -12.6171875 10.078125 C-23.50484569 12.11023334 -34.05845755 14.2437494 -44.42919922 18.20800781 C-48.33867135 19.66238804 -50.98939428 20.40220426 -55 19 C-56 18 -56 18 -56.0625 15.4375 C-56.041875 14.633125 -56.02125 13.82875 -56 13 C-49.94952846 9.72354582 -44.08405628 7.66916539 -37.4375 5.9375 C-36.47094482 5.68145996 -35.50438965 5.42541992 -34.50854492 5.16162109 C-9.47492407 -1.37395321 -9.47492407 -1.37395321 0 0 Z " fill="#664B38" transform="translate(109,328)"/>
<path d="M0 0 C5.03915098 0.0694283 9.88202727 0.87225284 14.828125 1.7890625 C16.25318359 2.0509436 16.25318359 2.0509436 17.70703125 2.31811523 C29.53766002 4.59903696 41.91088031 7.40306657 52.578125 13.1640625 C52.703125 15.5390625 52.703125 15.5390625 52.578125 18.1640625 C51.918125 18.8240625 51.258125 19.4840625 50.578125 20.1640625 C46.3055224 19.82845021 42.40478127 18.51937498 38.35888672 17.19628906 C27.6240422 13.70588498 16.83611543 11.59449643 5.69677734 9.81347656 C4.54129395 9.62495117 3.38581055 9.43642578 2.1953125 9.2421875 C1.16003418 9.08137695 0.12475586 8.92056641 -0.94189453 8.75488281 C-3.421875 8.1640625 -3.421875 8.1640625 -5.421875 6.1640625 C-4.69762697 0.22522869 -4.69762697 0.22522869 0 0 Z " fill="#664A36" transform="translate(406.421875,327.8359375)"/>
<path d="M0 0 C1.9375 0.3359375 1.9375 0.3359375 4.9375 2.3359375 C5.77322001 5.80738983 6.29448727 8.29243626 5.125 11.7109375 C3.9375 13.3359375 3.9375 13.3359375 1.9375 14.3359375 C-5.35059789 14.91435797 -5.35059789 14.91435797 -8.0625 12.7109375 C-9.34542178 9.66399828 -9.47245912 7.61561049 -9.0625 4.3359375 C-7.14512782 -0.21782144 -4.46542624 -0.08457247 0 0 Z " fill="#FFC059" transform="translate(22.0625,276.6640625)"/>
<path d="M0 0 C1.9375 2.25 1.9375 2.25 3 5 C2.23827309 8.53164296 1.56128588 10.43871412 -1 13 C-7.90410959 13.54794521 -7.90410959 13.54794521 -11 12 C-12.62392248 8.75215505 -12.54845627 5.55014264 -12 2 C-10.56026308 -0.23159222 -9.5266985 -0.77176398 -7.125 -1.8125 C-4.16494194 -2.07368159 -2.58365626 -1.45744712 0 0 Z " fill="#FFC059" transform="translate(493,225)"/>
<path d="M0 0 C2.375 1.625 2.375 1.625 4 4 C4.61195145 7.6717087 4.48706506 9.28813568 2.375 12.375 C0 14 0 14 -3 14.5625 C-6 14 -6 14 -8.375 11.8125 C-10.14232156 8.75367423 -10.70698088 7.44653179 -10 4 C-7.16979976 -0.02759265 -4.82432618 -0.80405436 0 0 Z " fill="#FABB5C" transform="translate(258,68)"/>
<path d="M0 0 C1.9375 1.0625 1.9375 1.0625 3 3 C3.63636364 8.93939394 3.63636364 8.93939394 1.875 11.875 C-0.83159547 13.49895728 -2.84374437 13.93558662 -6 14 C-8.375 12.5 -8.375 12.5 -10 10 C-10.42519574 6.53769185 -10.63902633 4.1652833 -8.9375 1.0625 C-5.88023824 -0.6140629 -3.4093712 -0.36528977 0 0 Z " fill="#22A4BB" transform="translate(451,75)"/>
</svg>
